<svg width="936" height="247" viewBox="0 0 936 247" fill="none" xmlns="http://www.w3.org/2000/svg">
<path d="M320.601 77.896H387.649V92.584H337.601V118.016H381.529V131.888H337.601V175H320.601V77.896ZM394.01 77.896H409.514V92.584H394.01V77.896ZM394.01 104.688H409.514V175H394.01V104.688ZM420.967 104.688H435.519V118.288H435.791C436.244 116.384 437.106 114.525 438.375 112.712C439.735 110.899 441.322 109.267 443.135 107.816C445.039 106.275 447.124 105.051 449.391 104.144C451.658 103.237 453.97 102.784 456.327 102.784C458.14 102.784 459.364 102.829 459.999 102.92C460.724 103.011 461.45 103.101 462.175 103.192V118.152C461.087 117.971 459.954 117.835 458.775 117.744C457.687 117.563 456.599 117.472 455.511 117.472C452.882 117.472 450.388 118.016 448.031 119.104C445.764 120.101 443.77 121.643 442.047 123.728C440.324 125.723 438.964 128.216 437.967 131.208C436.97 134.2 436.471 137.645 436.471 141.544V175H420.967V104.688ZM475.036 152.424C475.489 156.957 477.212 160.131 480.204 161.944C483.196 163.757 486.777 164.664 490.948 164.664C492.398 164.664 494.03 164.573 495.844 164.392C497.748 164.12 499.516 163.667 501.148 163.032C502.78 162.397 504.094 161.491 505.092 160.312C506.18 159.043 506.678 157.411 506.588 155.416C506.497 153.421 505.772 151.789 504.412 150.52C503.052 149.251 501.284 148.253 499.108 147.528C497.022 146.712 494.62 146.032 491.9 145.488C489.18 144.944 486.414 144.355 483.604 143.72C480.702 143.085 477.892 142.315 475.172 141.408C472.542 140.501 470.14 139.277 467.964 137.736C465.878 136.195 464.201 134.245 462.932 131.888C461.662 129.44 461.028 126.448 461.028 122.912C461.028 119.104 461.934 115.931 463.748 113.392C465.652 110.763 468.009 108.677 470.82 107.136C473.721 105.504 476.894 104.371 480.34 103.736C483.876 103.101 487.23 102.784 490.404 102.784C494.03 102.784 497.476 103.192 500.74 104.008C504.094 104.733 507.086 105.957 509.716 107.68C512.436 109.403 514.657 111.669 516.38 114.48C518.193 117.2 519.326 120.509 519.78 124.408H503.596C502.87 120.691 501.148 118.197 498.428 116.928C495.798 115.659 492.761 115.024 489.316 115.024C488.228 115.024 486.913 115.115 485.372 115.296C483.921 115.477 482.516 115.84 481.156 116.384C479.886 116.837 478.798 117.563 477.892 118.56C476.985 119.467 476.532 120.691 476.532 122.232C476.532 124.136 477.166 125.677 478.436 126.856C479.796 128.035 481.518 129.032 483.604 129.848C485.78 130.573 488.228 131.208 490.948 131.752C493.668 132.296 496.478 132.885 499.38 133.52C502.19 134.155 504.956 134.925 507.676 135.832C510.396 136.739 512.798 137.963 514.884 139.504C517.06 141.045 518.782 142.995 520.052 145.352C521.412 147.709 522.092 150.611 522.092 154.056C522.092 158.227 521.14 161.763 519.236 164.664C517.332 167.565 514.838 169.923 511.756 171.736C508.764 173.549 505.409 174.864 501.692 175.68C497.974 176.496 494.302 176.904 490.676 176.904C486.233 176.904 482.108 176.405 478.3 175.408C474.582 174.411 471.318 172.915 468.508 170.92C465.788 168.835 463.612 166.296 461.98 163.304C460.438 160.221 459.622 156.595 459.532 152.424H475.036ZM521.351 104.688H533.047V83.608H548.551V104.688H562.559V116.248H548.551V153.784C548.551 155.416 548.596 156.821 548.687 158C548.868 159.179 549.186 160.176 549.639 160.992C550.183 161.808 550.954 162.443 551.951 162.896C552.948 163.259 554.308 163.44 556.031 163.44C557.119 163.44 558.207 163.44 559.295 163.44C560.383 163.349 561.471 163.168 562.559 162.896V174.864C560.836 175.045 559.159 175.227 557.527 175.408C555.895 175.589 554.218 175.68 552.495 175.68C548.415 175.68 545.106 175.317 542.567 174.592C540.119 173.776 538.17 172.643 536.719 171.192C535.359 169.651 534.407 167.747 533.863 165.48C533.41 163.213 533.138 160.629 533.047 157.728V116.248H521.351V104.688ZM570.176 77.896H594.112L620.904 153.92H621.176L647.288 77.896H670.952V175H654.768V100.064H654.496L627.568 175H613.56L586.632 100.064H586.36V175H570.176V77.896ZM715.923 176.904C710.302 176.904 705.27 175.997 700.827 174.184C696.475 172.28 692.758 169.696 689.675 166.432C686.683 163.168 684.371 159.269 682.739 154.736C681.198 150.203 680.427 145.216 680.427 139.776C680.427 134.427 681.198 129.485 682.739 124.952C684.371 120.419 686.683 116.52 689.675 113.256C692.758 109.992 696.475 107.453 700.827 105.64C705.27 103.736 710.302 102.784 715.923 102.784C721.545 102.784 726.531 103.736 730.883 105.64C735.326 107.453 739.043 109.992 742.035 113.256C745.118 116.52 747.43 120.419 748.971 124.952C750.603 129.485 751.419 134.427 751.419 139.776C751.419 145.216 750.603 150.203 748.971 154.736C747.43 159.269 745.118 163.168 742.035 166.432C739.043 169.696 735.326 172.28 730.883 174.184C726.531 175.997 721.545 176.904 715.923 176.904ZM715.923 164.664C719.369 164.664 722.361 163.939 724.899 162.488C727.438 161.037 729.523 159.133 731.155 156.776C732.787 154.419 733.966 151.789 734.691 148.888C735.507 145.896 735.915 142.859 735.915 139.776C735.915 136.784 735.507 133.792 734.691 130.8C733.966 127.808 732.787 125.179 731.155 122.912C729.523 120.555 727.438 118.651 724.899 117.2C722.361 115.749 719.369 115.024 715.923 115.024C712.478 115.024 709.486 115.749 706.947 117.2C704.409 118.651 702.323 120.555 700.691 122.912C699.059 125.179 697.835 127.808 697.019 130.8C696.294 133.792 695.931 136.784 695.931 139.776C695.931 142.859 696.294 145.896 697.019 148.888C697.835 151.789 699.059 154.419 700.691 156.776C702.323 159.133 704.409 161.037 706.947 162.488C709.486 163.939 712.478 164.664 715.923 164.664ZM751.933 104.688H768.797L786.613 158.68H786.885L804.021 104.688H820.069L794.909 175H777.501L751.933 104.688ZM872.232 133.656C872.051 131.208 871.507 128.851 870.6 126.584C869.784 124.317 868.605 122.368 867.064 120.736C865.613 119.013 863.8 117.653 861.624 116.656C859.539 115.568 857.181 115.024 854.552 115.024C851.832 115.024 849.339 115.523 847.072 116.52C844.896 117.427 842.992 118.741 841.36 120.464C839.819 122.096 838.549 124.045 837.552 126.312C836.645 128.579 836.147 131.027 836.056 133.656H872.232ZM836.056 143.856C836.056 146.576 836.419 149.205 837.144 151.744C837.96 154.283 839.139 156.504 840.68 158.408C842.221 160.312 844.171 161.853 846.528 163.032C848.885 164.12 851.696 164.664 854.96 164.664C859.493 164.664 863.12 163.712 865.84 161.808C868.651 159.813 870.736 156.867 872.096 152.968H886.784C885.968 156.776 884.563 160.176 882.568 163.168C880.573 166.16 878.171 168.699 875.36 170.784C872.549 172.779 869.376 174.275 865.84 175.272C862.395 176.36 858.768 176.904 854.96 176.904C849.429 176.904 844.533 175.997 840.272 174.184C836.011 172.371 832.384 169.832 829.392 166.568C826.491 163.304 824.269 159.405 822.728 154.872C821.277 150.339 820.552 145.352 820.552 139.912C820.552 134.925 821.323 130.211 822.864 125.768C824.496 121.235 826.763 117.291 829.664 113.936C832.656 110.491 836.237 107.771 840.408 105.776C844.579 103.781 849.293 102.784 854.552 102.784C860.083 102.784 865.024 103.963 869.376 106.32C873.819 108.587 877.491 111.624 880.392 115.432C883.293 119.24 885.379 123.637 886.648 128.624C888.008 133.52 888.371 138.597 887.736 143.856H836.056ZM894.082 104.688H908.634V118.288H908.906C909.36 116.384 910.221 114.525 911.49 112.712C912.85 110.899 914.437 109.267 916.25 107.816C918.154 106.275 920.24 105.051 922.506 104.144C924.773 103.237 927.085 102.784 929.442 102.784C931.256 102.784 932.48 102.829 933.114 102.92C933.84 103.011 934.565 103.101 935.29 103.192V118.152C934.202 117.971 933.069 117.835 931.89 117.744C930.802 117.563 929.714 117.472 928.626 117.472C925.997 117.472 923.504 118.016 921.146 119.104C918.88 120.101 916.885 121.643 915.162 123.728C913.44 125.723 912.08 128.216 911.082 131.208C910.085 134.2 909.586 137.645 909.586 141.544V175H894.082V104.688Z" fill="#0171E5"/>
<path d="M50.8291 194.902C58.9005 194.902 62.1186 194.476 66.5303 192.412L67.2197 192.073C70.6854 190.297 74.3899 187.265 77.8379 183.604C81.2994 179.929 84.5703 175.548 87.1455 171.002L87.6504 170.09L87.6533 170.086L89.9004 165.899C94.9486 156.454 98.6286 149.277 101.029 144.199C102.398 141.303 103.369 139.052 103.939 137.436C104.222 136.636 104.428 135.933 104.524 135.357C104.572 135.072 104.603 134.754 104.579 134.441C104.557 134.156 104.474 133.666 104.1 133.245L104.028 133.164L103.946 133.094C103.725 132.907 103.495 132.819 103.404 132.785C103.283 132.74 103.163 132.706 103.061 132.681C102.854 132.631 102.611 132.589 102.354 132.551C101.832 132.476 101.128 132.404 100.272 132.334C98.5548 132.193 96.1356 132.055 93.1387 131.927C87.1398 131.673 78.774 131.459 68.9658 131.352H68.9648C53.1368 131.192 44.8062 131.137 40.2578 131.367C38.0053 131.481 36.526 131.669 35.4854 132.013C34.9362 132.195 34.4802 132.429 34.084 132.736C33.6941 133.038 33.4192 133.367 33.2041 133.647L33.1895 133.667L33.1758 133.686C32.666 134.397 32.2396 135.237 31.9385 136.031C31.6476 136.798 31.42 137.661 31.4199 138.405C31.4199 139.278 31.883 139.942 32.4336 140.385C32.9514 140.802 33.6237 141.098 34.3457 141.327C35.8031 141.789 37.9411 142.127 40.793 142.382C46.5303 142.896 55.5733 143.109 68.8447 143.109C75.1007 143.109 80.0748 143.215 83.5264 143.4C85.2569 143.493 86.5756 143.604 87.4717 143.726C87.5116 143.732 87.5503 143.739 87.5879 143.745C87.5739 143.786 87.5623 143.83 87.5469 143.874C87.2551 144.706 86.7719 145.856 86.1318 147.25C84.8562 150.027 83.0154 153.647 81.0088 157.37C79.0035 161.09 76.844 164.891 74.9346 168.027C72.9941 171.214 71.3919 173.58 70.4893 174.542L70.4873 174.544C68.6896 176.467 65.2269 179.254 62.7314 180.671L62.7021 180.688C60.7004 181.885 59.3867 182.511 57.748 182.874C56.0564 183.248 53.9415 183.359 50.3027 183.359C46.6098 183.359 44.5019 183.248 42.7783 182.85C41.099 182.463 39.7049 181.786 37.4746 180.471L37.4756 180.47C30.1723 176.152 25.308 170.73 21.21 162.216L21.2109 162.215C15.5273 150.274 13.3497 140.142 13.3496 123.989C13.3496 67.1459 50.8633 22.7333 105.834 14.5172H105.833C117.962 12.7313 133.996 13.467 146.783 16.4176C152.091 17.6721 159.002 20.1712 164.595 22.6422C167.391 23.8779 169.815 25.0875 171.52 26.109C172.018 26.4078 172.437 26.683 172.779 26.9264C172.757 26.9353 172.735 26.9447 172.713 26.9538C171.61 27.3983 170.057 27.9419 168.31 28.4635V28.4626C158.852 31.1315 151.408 34.973 144.668 41.3366C137.961 47.6694 132.023 56.4344 125.462 68.8239V68.8229C119.775 79.5516 115.146 88.1095 111.81 94.0612C110.14 97.039 108.802 99.3519 107.819 100.954C107.327 101.757 106.935 102.363 106.643 102.779C106.553 102.906 106.477 103.008 106.415 103.089C106.36 103.096 106.298 103.107 106.227 103.115C105.809 103.163 105.199 103.213 104.404 103.262C102.82 103.361 100.577 103.454 97.8379 103.534C92.3637 103.694 84.951 103.8 76.9561 103.8H46.8682L46.4463 104.602L44.7607 107.805L44.7432 107.84C44.3618 108.614 44.0274 109.288 43.8174 109.835C43.6238 110.339 43.3933 111.07 43.6006 111.834C43.8331 112.69 44.4798 113.153 44.96 113.42C45.4309 113.681 46.0598 113.923 46.7021 114.173L46.7148 114.177L46.8721 114.232C47.2562 114.353 47.7476 114.429 48.2324 114.489C48.8375 114.564 49.6059 114.631 50.5166 114.691C52.3408 114.812 54.8009 114.908 57.7988 114.982C63.7982 115.129 72.0054 115.183 81.7051 115.13H81.7119L113.423 114.809L114.284 114.8L114.711 114.052L117.444 109.257L118.689 107.086C121.307 102.473 124.804 96.025 131.263 83.9245L134.749 77.3854L134.751 77.3805L136.341 74.3874C143.965 60.1224 146.955 56.0795 153.188 50.3434L153.668 49.9108C163.464 41.1876 175.405 37.0425 190.241 37.5348L191.71 37.5983C194.114 37.76 196.327 37.7884 197.963 37.7047C198.773 37.6633 199.496 37.5918 200.046 37.4792C200.307 37.4255 200.623 37.3449 200.907 37.2067C201.048 37.1383 201.264 37.0167 201.463 36.8102C201.675 36.5902 201.928 36.2045 201.928 35.6735C201.928 35.232 201.739 34.9007 201.69 34.8141C201.609 34.6697 201.515 34.5403 201.436 34.4381C201.273 34.2295 201.062 33.9985 200.834 33.7633C200.371 33.2861 199.727 32.6814 198.974 32.0036C197.46 30.6422 195.428 28.9199 193.329 27.2086C191.23 25.4971 189.048 23.7827 187.231 22.4381C186.324 21.7667 185.495 21.1786 184.808 20.7262C184.183 20.3151 183.545 19.9305 183.05 19.7487L183.051 19.7477C182.748 19.6326 181.93 19.2123 180.75 18.5661C179.616 17.9449 178.255 17.1752 176.938 16.4274C165.246 9.47527 149.671 4.51838 133.302 2.47037L133.303 2.46939C122.511 1.06135 116.368 1.17433 104.35 2.89908V2.8981C89.739 4.95208 81.3738 7.67492 66.5117 14.777V14.778C40.864 27.0192 19.3198 50.9229 9.0752 78.61L8.52246 80.0983C5.82423 87.435 4.10682 93.2326 3.04883 99.3864C1.92179 105.942 1.55283 112.847 1.5 122.379V122.386L1.50391 125.125C1.54647 138.173 1.95037 141.882 3.97363 149.47L3.97461 149.475L4.23828 150.433C9.84643 170.466 20.3466 185.412 33.542 191.661L33.5449 191.663L34.624 192.163C37.0551 193.27 38.9305 193.965 41.1289 194.37C43.6008 194.825 46.4192 194.902 50.8291 194.902Z" fill="#0171E5" stroke="#0171E5" stroke-width="3"/>
<path d="M78.8076 236.314C105.038 246.9 134.375 248.164 159.859 239.869L161.089 239.461L161.091 239.46L162.502 238.97C191.599 228.657 215.796 207.258 230.062 179.404L230.745 178.051L230.747 178.047L231.16 177.191C235.299 168.437 239.593 153.987 241.546 142.749L241.733 141.637L241.734 141.628L241.88 140.672C244.835 120.513 241.751 95.2262 234.216 80.3801L234.215 80.381C227.869 67.6304 217.822 57.7157 206.661 53.3898L206.66 53.3908C202.97 51.9005 197.929 51.3104 192.918 51.4601C187.884 51.6107 182.692 52.5129 178.688 54.1476L178.679 54.1506L178.669 54.1545C171.434 57.2192 166.031 61.0998 162.146 66.2756V66.2766C161.2 67.5295 159.223 70.8827 156.852 75.0998C154.449 79.3724 151.576 84.6521 148.813 89.8449C146.051 95.0375 143.395 100.153 141.427 104.095C140.444 106.064 139.626 107.752 139.052 109.015C138.766 109.644 138.532 110.185 138.367 110.611C138.285 110.822 138.213 111.025 138.158 111.206C138.128 111.307 138.075 111.491 138.051 111.702L138.037 111.921L138.043 112.072C138.099 112.811 138.556 113.321 139 113.614C139.425 113.896 139.953 114.068 140.482 114.195C141.569 114.456 143.244 114.652 145.69 114.82C150.619 115.156 159.058 115.397 173.109 115.663L179.915 115.808C186.545 115.937 192.578 116.017 197.368 116.037C200.559 116.051 203.209 116.037 205.119 115.993C206.072 115.971 206.857 115.942 207.439 115.903C207.728 115.883 207.988 115.86 208.202 115.831C208.309 115.817 208.424 115.798 208.535 115.773C208.602 115.758 208.733 115.727 208.881 115.666C209.683 115.355 210.36 114.668 210.854 114.059C211.392 113.393 211.895 112.59 212.303 111.785C212.708 110.986 213.05 110.123 213.23 109.332C213.32 108.938 213.382 108.512 213.368 108.093C213.356 107.729 213.28 107.251 213.008 106.805C212.778 106.394 212.429 106.211 212.357 106.172C212.201 106.088 212.051 106.038 211.954 106.008C211.75 105.946 211.517 105.9 211.295 105.863C210.836 105.788 210.212 105.718 209.464 105.652C207.957 105.519 205.825 105.39 203.238 105.27C199.353 105.089 194.404 104.923 188.925 104.784L183.289 104.654C175.559 104.495 168.438 104.229 163.202 103.949C160.582 103.81 158.446 103.667 156.945 103.534C156.582 103.502 156.261 103.472 155.982 103.442C156.233 102.704 156.636 101.702 157.174 100.487C158.335 97.8647 160.053 94.39 161.974 90.7414C165.6 83.8543 169.843 76.5481 172.353 73.2209L172.831 72.6096L172.84 72.5998L173.332 71.9992C175.804 69.0581 178.427 67.0121 181.513 65.6682C184.82 64.228 188.76 63.55 193.793 63.55C197.315 63.55 199.56 63.6593 201.409 64.0168C203.213 64.3657 204.697 64.963 206.664 66.0363L206.682 66.0461L206.699 66.0549C210.964 68.2415 215.345 72.6289 219.191 78.5031C223.023 84.3548 226.251 91.5732 228.267 99.2726L228.27 99.2834L228.391 99.7531C229.625 104.749 230.271 114.102 230.271 123.642C230.271 133.486 229.583 143.193 228.268 148.167L228.266 148.173C220.131 179.463 203.379 203.243 179.216 217.855V217.856C170.553 223.039 157.765 228.5 151.043 229.842L151.034 229.843L151.024 229.845C126.592 235.031 111.262 234.601 89.9404 228.066L89.9414 228.065C85.9169 226.809 81.1147 224.837 77.3242 222.995C75.4266 222.073 73.8196 221.201 72.7051 220.486C72.494 220.35 72.3079 220.223 72.1445 220.108C72.6715 219.892 73.3669 219.684 74.1719 219.52L74.585 219.441L74.5918 219.44L75.2041 219.317C78.3408 218.628 82.6087 216.844 86.7539 214.674C90.9198 212.493 95.1242 209.836 98.123 207.31L98.7061 206.807L98.7129 206.8L99.3262 206.239C105.636 200.347 111.3 191.18 124.431 165.799L126.753 161.376C129.019 157.07 131.092 153.16 132.759 150.062C133.87 147.995 134.798 146.296 135.478 145.082C135.818 144.474 136.092 143.997 136.294 143.66C136.317 143.622 136.339 143.587 136.359 143.553C136.374 143.551 136.389 143.548 136.404 143.546C136.801 143.493 137.391 143.44 138.173 143.389C139.729 143.287 141.951 143.202 144.709 143.135C150.22 143.002 157.815 142.949 166.391 143.002L196.416 143.216L197.459 143.223L197.829 142.247L198.883 139.471L198.895 139.438C199.164 138.673 199.437 137.844 199.645 137.128C199.748 136.771 199.84 136.427 199.907 136.126C199.967 135.86 200.033 135.513 200.033 135.201C200.033 134.466 199.672 133.873 199.155 133.47C198.709 133.122 198.142 132.907 197.57 132.751C196.407 132.434 194.608 132.204 191.967 132.01C186.638 131.619 177.429 131.353 161.902 131.032L161.898 131.031L132.084 130.498L131.42 130.487L130.965 130.969L128.753 133.319L128.722 133.352L128.693 133.386C128.014 134.2 126.628 136.438 124.992 139.253C123.531 141.769 121.808 144.856 120.089 148.068L119.354 149.45C98.5393 188.756 97.3002 190.706 90.8945 196.684L90.8838 196.694L90.873 196.704C88.4246 199.083 84.3116 202.206 81.8018 203.631L81.7891 203.638L81.7773 203.645C78.523 205.573 73.6962 207.372 68.6221 208.661C63.5517 209.95 58.3776 210.694 54.4541 210.592L54.4551 210.591C51.5788 210.511 49.3684 210.443 47.7979 210.467C47.014 210.479 46.3325 210.515 45.7783 210.595C45.2945 210.665 44.6253 210.801 44.1113 211.214C43.8079 211.458 43.5339 211.817 43.4258 212.296C43.3228 212.752 43.4055 213.16 43.5137 213.455C43.71 213.991 44.1038 214.462 44.4414 214.824C45.1553 215.591 46.3342 216.596 47.7422 217.816L47.751 217.823L48.4053 218.371C55.3684 224.105 68.4352 231.913 77.5293 235.789L77.54 235.794L78.8076 236.314Z" fill="#0171E5" stroke="#0171E5" stroke-width="3"/>
</svg>
