<svg xmlns="http://www.w3.org/2000/svg" width="416" height="416" fill="none"><rect width="416" height="416" fill="#0171E5" rx="90"/><path fill="#fff" stroke="#fff" stroke-width="3" d="M186.495 70.61c-16.795 2.36-26.357 5.468-43.519 13.669-29.421 14.042-54.184 41.504-65.953 73.315-6.987 18.64-8.581 28.208-8.704 50.327 0 17.769.368 21.87 2.82 31.066 6.374 23.61 18.51 40.882 33.467 47.965 6.865 3.231 9.071 3.604 19.369 3.604 9.316 0 12.749-.497 17.53-2.734 7.968-3.728 17.775-14.166 23.782-25.225 9.18-17.034 14.954-28.413 17.665-34.772 1.687-3.956-.399-6.551-4.693-6.804-6.827-.402-18.638-.764-33.199-.922-36.899-.373-38.493-.249-40.209 1.988-.981 1.367-1.716 3.355-1.716 4.473 0 2.734 10.91 3.728 41.802 3.728 14.588 0 23.292.497 23.782 1.243 1.104 1.864-15.813 33.178-20.594 38.273-2.207 2.361-6.375 5.716-9.44 7.456-4.781 2.858-6.865 3.355-15.323 3.355-8.582 0-10.543-.497-15.814-3.604-8.827-5.219-14.71-11.805-19.615-21.994-6.742-14.166-9.316-26.22-9.316-45.232 0-66.978 44.254-119.417 109.104-129.11 14.343-2.112 33.221-1.242 48.3 2.237 12.626 2.982 32.608 11.805 32.608 14.414 0 .373-3.31 1.74-7.478 2.983-21.575 6.089-33.589 17.397-48.79 46.101-13.24 24.977-21.576 39.889-22.801 40.635-.613.497-16.55.994-35.183.994h-29.745a6.975 6.975 0 0 0-6.174 3.728c-1.839 3.727-1.839 3.727 1.349 4.97 1.961.746 17.53 1.118 40.086.994l30.463-.308a11.208 11.208 0 0 0 9.624-5.656c3.677-6.338 8.458-15.161 20.104-37.031 10.298-19.509 13.853-24.604 21.821-31.936 12.259-11.183 27.337-16.278 46.093-15.284 5.517.373 10.053.124 10.053-.497 0-1.118-18.021-15.906-20.841-16.9-.98-.373-4.29-2.237-7.355-3.976-13.362-7.953-31.26-13.67-50.139-16.03-12.381-1.616-19.369-1.491-33.221.497Z"/><path fill="#fff" stroke="#fff" stroke-width="3" d="M274.165 129.132c-8.213 3.479-14.22 7.829-18.511 13.545-4.045 5.343-27.705 49.829-27.705 52.066 0 1.491 6.375 1.988 39.106 2.61 21.576.497 39.964.621 40.945.124 5.735-2.18.89-8.396-5.239-8.693-6.065-.295-14.601-.557-23.938-.751-18.02-.373-33.221-1.243-33.711-1.74-1.349-1.367 14.342-31.19 20.227-38.397 6.374-7.953 13.73-11.184 25.743-11.184 8.214 0 11.033.497 15.814 3.107 10.665 5.467 21.208 21.497 25.989 39.764 3.187 11.805 3.187 45.729 0 57.782-9.562 36.782-29.299 64.866-57.862 82.138-10.175 6.089-25.253 12.551-33.344 14.166-28.686 6.089-46.829 5.592-71.959-2.112-9.562-2.983-22.679-9.32-22.679-11.06 0-.869 2.206-1.864 5.026-2.361 6.865-1.242 20.472-8.325 27.214-14.29 7.356-6.586 13.73-16.651 29.544-47.22 7.356-14.042 13.73-25.971 14.343-26.592.613-.622 16.059-.994 36.041-.87l31.483.224a4.969 4.969 0 0 0 4.681-3.206c.613-1.74 1.226-3.728 1.226-4.35 0-1.864-6.497-2.361-42.661-3.106L223 218.172a8.485 8.485 0 0 0-6.329 2.666c-1.348 1.616-6.129 9.817-10.665 18.391-24.15 45.605-25.744 48.214-33.467 55.422-2.942 2.858-7.846 6.586-10.91 8.325-7.969 4.722-23.17 8.574-32.732 8.326-13.484-.373-13.362-.497-6.619 5.343 7.723 6.586 23.414 16.03 34.202 20.628 31.015 12.923 65.953 14.414 95.987 4.225 34.692-11.805 63.501-37.279 80.05-70.582 5.026-10.189 10.42-28.332 12.627-41.876 3.678-23.362.123-53.061-8.581-70.209-7.233-14.539-18.634-25.723-31.138-30.569-7.968-3.231-22.434-2.734-31.26.87Z"/></svg>